<?xml version="1.0" encoding="utf-8"?>
<!-- Generator: Adobe Illustrator 16.0.0, SVG Export Plug-In . SVG Version: 6.00 Build 0)  -->
<!DOCTYPE svg PUBLIC "-//W3C//DTD SVG 1.0//EN" "http://www.w3.org/TR/2001/REC-SVG-20010904/DTD/svg10.dtd">
<svg version="1.0" xmlns="http://www.w3.org/2000/svg" xmlns:xlink="http://www.w3.org/1999/xlink" x="0px" y="0px"
	 width="841.89px" height="595.28px" viewBox="0 0 841.89 595.28" enable-background="new 0 0 841.89 595.28" xml:space="preserve">
<g id="Calque_2">
	<rect x="410.667" y="152" fill="#ED1C24" width="112.5" height="50"/>
	<line stroke="#000000" stroke-miterlimit="10" x1="523.167" y1="202" x2="269.833" y2="202"/>
	<g>
		<rect x="265.667" y="214.5" fill="none" width="263.333" height="39.167"/>
		<path d="M273.144,233.715v-2.61c0.299,0.264,0.657,0.501,1.075,0.712c0.417,0.211,0.856,0.389,1.318,0.534
			c0.461,0.145,0.925,0.257,1.391,0.336s0.896,0.119,1.292,0.119c1.362,0,2.38-0.252,3.052-0.758
			c0.673-0.505,1.009-1.232,1.009-2.182c0-0.51-0.112-0.954-0.336-1.332c-0.225-0.378-0.534-0.723-0.93-1.035
			s-0.863-0.611-1.404-0.896c-0.54-0.286-1.123-0.587-1.747-0.903c-0.659-0.334-1.274-0.672-1.846-1.015s-1.068-0.721-1.49-1.134
			s-0.754-0.881-0.995-1.404c-0.242-0.523-0.363-1.136-0.363-1.839c0-0.861,0.189-1.61,0.567-2.248s0.875-1.163,1.49-1.576
			s1.316-0.721,2.103-0.923c0.786-0.202,1.588-0.303,2.406-0.303c1.863,0,3.221,0.224,4.074,0.672v2.492
			c-1.116-0.773-2.549-1.16-4.298-1.16c-0.483,0-0.967,0.051-1.45,0.151c-0.483,0.102-0.914,0.266-1.292,0.495
			s-0.686,0.523-0.923,0.883s-0.356,0.8-0.356,1.318c0,0.483,0.09,0.901,0.27,1.252s0.446,0.672,0.798,0.962s0.78,0.571,1.285,0.844
			s1.088,0.571,1.747,0.896c0.677,0.334,1.318,0.686,1.925,1.055s1.138,0.778,1.595,1.226s0.819,0.945,1.087,1.49
			s0.402,1.169,0.402,1.872c0,0.932-0.183,1.721-0.547,2.366c-0.365,0.646-0.857,1.171-1.477,1.576
			c-0.62,0.404-1.334,0.697-2.143,0.876c-0.809,0.18-1.661,0.271-2.558,0.271c-0.299,0-0.668-0.024-1.107-0.072
			c-0.439-0.049-0.888-0.119-1.345-0.211c-0.457-0.093-0.89-0.207-1.299-0.343C273.718,234.034,273.39,233.882,273.144,233.715z"/>
		<path d="M330.822,233.688c-1.397,0.738-3.138,1.107-5.221,1.107c-2.689,0-4.843-0.866-6.46-2.597s-2.426-4.003-2.426-6.816
			c0-3.023,0.91-5.467,2.729-7.33s4.126-2.795,6.921-2.795c1.793,0,3.278,0.259,4.456,0.778v2.36
			c-1.354-0.756-2.848-1.134-4.482-1.134c-2.171,0-3.931,0.725-5.28,2.175s-2.023,3.388-2.023,5.814c0,2.303,0.63,4.138,1.892,5.504
			c1.261,1.367,2.916,2.05,4.964,2.05c1.898,0,3.542-0.422,4.931-1.266V233.688z"/>
		<path d="M378.468,234.479h-2.215v-8.622h-9.782v8.622h-2.215v-18.905h2.215v8.292h9.782v-8.292h2.215V234.479z"/>
		<path d="M420.629,234.796c-2.681,0-4.828-0.883-6.44-2.65s-2.419-4.065-2.419-6.895c0-3.041,0.822-5.467,2.465-7.277
			s3.88-2.716,6.71-2.716c2.61,0,4.713,0.879,6.309,2.637c1.595,1.758,2.393,4.056,2.393,6.895c0,3.085-0.817,5.524-2.452,7.317
			S423.371,234.796,420.629,234.796z M420.787,217.262c-1.986,0-3.599,0.716-4.838,2.149s-1.859,3.313-1.859,5.643
			s0.604,4.204,1.813,5.623c1.208,1.42,2.784,2.129,4.727,2.129c2.074,0,3.709-0.677,4.904-2.03s1.793-3.248,1.793-5.682
			c0-2.496-0.58-4.425-1.74-5.788S422.826,217.262,420.787,217.262z"/>
		<path d="M470.569,234.796c-2.681,0-4.827-0.883-6.44-2.65c-1.612-1.767-2.419-4.065-2.419-6.895c0-3.041,0.821-5.467,2.466-7.277
			c1.643-1.811,3.88-2.716,6.71-2.716c2.61,0,4.713,0.879,6.309,2.637c1.595,1.758,2.393,4.056,2.393,6.895
			c0,3.085-0.817,5.524-2.452,7.317S473.312,234.796,470.569,234.796z M470.728,217.262c-1.986,0-3.599,0.716-4.839,2.149
			c-1.238,1.433-1.858,3.313-1.858,5.643s0.604,4.204,1.813,5.623c1.209,1.42,2.784,2.129,4.727,2.129
			c2.074,0,3.709-0.677,4.904-2.03s1.793-3.248,1.793-5.682c0-2.496-0.58-4.425-1.74-5.788S472.767,217.262,470.728,217.262z"/>
		<path d="M522.699,234.479h-9.809v-18.905h2.215v16.901h7.594V234.479z"/>
	</g>
</g>
<g id="Calque_1">
	<g>
		<path fill="#ED1C24" d="M236.494,180.062l20.64-10.104v4.386l-15.136,7.052v0.086l15.136,7.009v4.343l-20.64-10.105V180.062z"/>
		<path d="M276.698,183.717l-3.01,9.116h-3.87l9.847-28.981h4.515l9.89,28.981h-3.999l-3.096-9.116H276.698z M286.2,180.793
			l-2.838-8.342c-0.645-1.892-1.075-3.612-1.505-5.289h-0.086c-0.43,1.72-0.903,3.483-1.462,5.246l-2.838,8.385H286.2z"/>
		<path d="M317.934,191.887c-1.376,0.688-4.128,1.376-7.654,1.376c-8.17,0-14.319-5.16-14.319-14.663
			c0-9.073,6.149-15.222,15.136-15.222c3.612,0,5.891,0.774,6.88,1.29l-0.903,3.053c-1.419-0.688-3.44-1.204-5.848-1.204
			c-6.793,0-11.309,4.343-11.309,11.954c0,7.095,4.085,11.653,11.137,11.653c2.279,0,4.601-0.473,6.106-1.204L317.934,191.887z"/>
		<path d="M341.971,191.887c-1.376,0.688-4.128,1.376-7.654,1.376c-8.17,0-14.319-5.16-14.319-14.663
			c0-9.073,6.149-15.222,15.136-15.222c3.612,0,5.891,0.774,6.88,1.29l-0.903,3.053c-1.419-0.688-3.44-1.204-5.848-1.204
			c-6.793,0-11.309,4.343-11.309,11.954c0,7.095,4.085,11.653,11.137,11.653c2.279,0,4.601-0.473,6.106-1.204L341.971,191.887z"/>
		<path d="M361.665,179.245h-11.266v10.449h12.556v3.139h-16.296v-28.981h15.652v3.139h-11.911v9.159h11.266V179.245z"/>
		<path d="M367.297,188.275c1.677,1.032,4.128,1.892,6.708,1.892c3.827,0,6.063-2.021,6.063-4.945c0-2.709-1.548-4.257-5.461-5.762
			c-4.73-1.677-7.654-4.128-7.654-8.213c0-4.515,3.741-7.869,9.374-7.869c2.967,0,5.117,0.688,6.407,1.419l-1.032,3.053
			c-0.946-0.516-2.881-1.376-5.504-1.376c-3.956,0-5.461,2.365-5.461,4.343c0,2.709,1.763,4.042,5.762,5.59
			c4.902,1.892,7.396,4.257,7.396,8.514c0,4.472-3.311,8.342-10.148,8.342c-2.795,0-5.848-0.817-7.396-1.849L367.297,188.275z"/>
		<path d="M388.496,188.275c1.677,1.032,4.128,1.892,6.708,1.892c3.827,0,6.063-2.021,6.063-4.945c0-2.709-1.548-4.257-5.461-5.762
			c-4.73-1.677-7.654-4.128-7.654-8.213c0-4.515,3.741-7.869,9.374-7.869c2.967,0,5.117,0.688,6.407,1.419l-1.032,3.053
			c-0.946-0.516-2.881-1.376-5.504-1.376c-3.956,0-5.461,2.365-5.461,4.343c0,2.709,1.763,4.042,5.762,5.59
			c4.902,1.892,7.396,4.257,7.396,8.514c0,4.472-3.311,8.342-10.148,8.342c-2.795,0-5.848-0.817-7.396-1.849L388.496,188.275z"/>
		<path fill="#FFFFFF" d="M439.579,191.887c-1.376,0.688-4.128,1.376-7.653,1.376c-8.17,0-14.319-5.16-14.319-14.663
			c0-9.073,6.149-15.222,15.136-15.222c3.612,0,5.891,0.774,6.88,1.29l-0.903,3.053c-1.418-0.688-3.439-1.204-5.848-1.204
			c-6.793,0-11.309,4.343-11.309,11.954c0,7.095,4.085,11.653,11.137,11.653c2.279,0,4.602-0.473,6.105-1.204L439.579,191.887z"/>
		<path fill="#FFFFFF" d="M468.131,178.042c0,9.976-6.063,15.265-13.459,15.265c-7.654,0-13.029-5.934-13.029-14.706
			c0-9.202,5.72-15.222,13.459-15.222C463.014,163.378,468.131,169.441,468.131,178.042z M445.643,178.514
			c0,6.192,3.354,11.739,9.244,11.739c5.934,0,9.288-5.461,9.288-12.04c0-5.762-3.01-11.782-9.245-11.782
			C448.738,166.432,445.643,172.15,445.643,178.514z"/>
		<path fill="#FFFFFF" d="M472.99,164.238c2.279-0.344,4.988-0.602,7.955-0.602c5.375,0,9.201,1.247,11.738,3.612
			c2.58,2.365,4.085,5.719,4.085,10.406c0,4.73-1.462,8.6-4.171,11.266c-2.709,2.709-7.181,4.171-12.813,4.171
			c-2.666,0-4.902-0.129-6.794-0.344V164.238z M476.73,189.866c0.947,0.172,2.322,0.215,3.785,0.215
			c7.997,0,12.34-4.472,12.34-12.298c0.043-6.837-3.826-11.18-11.738-11.18c-1.936,0-3.396,0.172-4.387,0.387V189.866z"/>
		<path fill="#FFFFFF" d="M516.634,179.245h-11.266v10.449h12.556v3.139h-16.297v-28.981h15.652v3.139h-11.911v9.159h11.266V179.245
			z"/>
		<path fill="#ED1C24" d="M551.765,183.287l-20.64,9.546v-4.257l16.512-7.138v-0.086l-16.512-7.138v-4.257l20.64,9.546V183.287z"/>
	</g>
	<g>
	</g>
	<g>
	</g>
	<g>
	</g>
	<g>
	</g>
	<g>
	</g>
	<g>
	</g>
	<g>
	</g>
</g>
</svg>
