<?xml version="1.0" encoding="utf-8"?>
<!-- Generator: Adobe Illustrator 16.0.0, SVG Export Plug-In . SVG Version: 6.00 Build 0)  -->
<!DOCTYPE svg PUBLIC "-//W3C//DTD SVG 1.1//EN" "http://www.w3.org/Graphics/SVG/1.1/DTD/svg11.dtd">
<svg version="1.1" id="Calque_1" xmlns="http://www.w3.org/2000/svg" xmlns:xlink="http://www.w3.org/1999/xlink" x="0px" y="0px"
	 width="328px" height="123.597px" viewBox="228.445 130.07 328 123.597" enable-background="new 228.445 130.07 328 123.597"
	 xml:space="preserve">
<g id="Calque_2">
	<rect x="410.667" y="152" fill="#ED1C24" width="112.501" height="50"/>
	<line fill="none" stroke="#000000" stroke-miterlimit="10" x1="523.168" y1="202" x2="269.833" y2="202"/>
	<g>
		<rect x="265.667" y="214.5" fill="none" width="263.333" height="39.167"/>
		<path d="M273.144,233.715v-2.61c0.299,0.265,0.657,0.501,1.075,0.712c0.417,0.211,0.855,0.39,1.317,0.534
			c0.461,0.146,0.925,0.257,1.392,0.336c0.466,0.079,0.896,0.119,1.292,0.119c1.361,0,2.38-0.252,3.052-0.758
			c0.673-0.505,1.009-1.232,1.009-2.182c0-0.511-0.112-0.954-0.336-1.332c-0.225-0.379-0.534-0.724-0.93-1.035
			c-0.396-0.313-0.863-0.611-1.404-0.896c-0.54-0.286-1.123-0.587-1.747-0.902c-0.659-0.334-1.274-0.673-1.846-1.016
			c-0.572-0.343-1.068-0.721-1.49-1.134s-0.754-0.881-0.995-1.404c-0.242-0.522-0.363-1.136-0.363-1.839
			c0-0.861,0.189-1.61,0.567-2.248s0.875-1.163,1.49-1.576c0.614-0.413,1.315-0.721,2.103-0.923
			c0.786-0.202,1.588-0.303,2.406-0.303c1.863,0,3.221,0.224,4.074,0.672v2.492c-1.116-0.773-2.549-1.16-4.298-1.16
			c-0.483,0-0.968,0.051-1.45,0.151c-0.483,0.102-0.914,0.266-1.292,0.494c-0.378,0.229-0.687,0.523-0.923,0.884
			c-0.237,0.359-0.356,0.8-0.356,1.317c0,0.483,0.09,0.901,0.271,1.252c0.18,0.352,0.445,0.672,0.798,0.962
			c0.352,0.29,0.779,0.571,1.285,0.845c0.505,0.272,1.088,0.57,1.746,0.896c0.678,0.334,1.318,0.687,1.926,1.056
			c0.606,0.368,1.138,0.777,1.595,1.226s0.819,0.945,1.087,1.49s0.402,1.169,0.402,1.872c0,0.932-0.184,1.721-0.547,2.365
			c-0.365,0.646-0.857,1.172-1.478,1.576s-1.334,0.697-2.143,0.876c-0.81,0.181-1.661,0.271-2.559,0.271
			c-0.299,0-0.668-0.024-1.106-0.072c-0.439-0.049-0.889-0.119-1.346-0.211c-0.457-0.093-0.89-0.207-1.299-0.343
			C273.718,234.034,273.39,233.882,273.144,233.715z"/>
		<path d="M330.822,233.688c-1.397,0.738-3.138,1.107-5.221,1.107c-2.689,0-4.844-0.866-6.46-2.598
			c-1.617-1.73-2.427-4.003-2.427-6.815c0-3.023,0.91-5.467,2.729-7.33s4.126-2.795,6.921-2.795c1.793,0,3.278,0.259,4.456,0.778
			v2.359c-1.354-0.756-2.848-1.134-4.482-1.134c-2.171,0-3.931,0.725-5.279,2.175c-1.35,1.45-2.023,3.389-2.023,5.814
			c0,2.303,0.63,4.138,1.893,5.504c1.261,1.367,2.915,2.05,4.964,2.05c1.897,0,3.542-0.422,4.931-1.266L330.822,233.688
			L330.822,233.688z"/>
		<path d="M378.468,234.479h-2.215v-8.622h-9.781v8.622h-2.216v-18.904h2.216v8.292h9.781v-8.292h2.215V234.479z"/>
		<path d="M420.629,234.796c-2.681,0-4.828-0.883-6.439-2.65c-1.612-1.767-2.419-4.064-2.419-6.895c0-3.041,0.821-5.467,2.465-7.277
			c1.643-1.81,3.88-2.716,6.71-2.716c2.61,0,4.713,0.879,6.31,2.637c1.595,1.758,2.393,4.057,2.393,6.896
			c0,3.085-0.817,5.523-2.452,7.316S423.371,234.796,420.629,234.796z M420.787,217.262c-1.986,0-3.599,0.716-4.838,2.149
			c-1.239,1.433-1.859,3.313-1.859,5.643s0.604,4.204,1.813,5.623c1.208,1.42,2.784,2.129,4.727,2.129
			c2.074,0,3.71-0.677,4.904-2.03c1.195-1.353,1.793-3.248,1.793-5.682c0-2.496-0.58-4.425-1.739-5.788
			C424.427,217.943,422.826,217.262,420.787,217.262z"/>
		<path d="M470.569,234.796c-2.681,0-4.827-0.883-6.439-2.65c-1.612-1.767-2.419-4.064-2.419-6.895c0-3.041,0.82-5.467,2.466-7.277
			c1.643-1.811,3.88-2.716,6.71-2.716c2.609,0,4.713,0.879,6.309,2.637c1.595,1.758,2.394,4.057,2.394,6.896
			c0,3.085-0.817,5.523-2.452,7.316S473.312,234.796,470.569,234.796z M470.728,217.262c-1.986,0-3.599,0.716-4.839,2.149
			c-1.238,1.433-1.858,3.313-1.858,5.643s0.604,4.204,1.813,5.623c1.209,1.42,2.784,2.129,4.727,2.129
			c2.074,0,3.709-0.677,4.904-2.03c1.195-1.353,1.793-3.248,1.793-5.682c0-2.496-0.58-4.425-1.74-5.788
			S472.767,217.262,470.728,217.262z"/>
		<path d="M522.699,234.479h-9.809v-18.904h2.215v16.9h7.594V234.479z"/>
	</g>
</g>
<g id="Calque_1_1_">
	<g>
		<path fill="#ED1C24" d="M236.494,180.062l20.64-10.104v4.386l-15.136,7.052v0.086l15.136,7.01v4.343l-20.64-10.105V180.062z"/>
		<path d="M276.698,183.717l-3.01,9.116h-3.87l9.847-28.981h4.516l9.89,28.981h-3.999l-3.096-9.116H276.698z M286.2,180.793
			l-2.838-8.342c-0.646-1.893-1.075-3.612-1.505-5.289h-0.086c-0.431,1.72-0.903,3.482-1.462,5.246l-2.838,8.385H286.2z"/>
		<path d="M317.934,191.887c-1.376,0.688-4.128,1.376-7.654,1.376c-8.17,0-14.319-5.16-14.319-14.663
			c0-9.073,6.149-15.222,15.137-15.222c3.611,0,5.891,0.773,6.88,1.29l-0.903,3.053c-1.419-0.688-3.44-1.204-5.848-1.204
			c-6.793,0-11.31,4.343-11.31,11.954c0,7.095,4.085,11.653,11.138,11.653c2.278,0,4.601-0.474,6.105-1.204L317.934,191.887z"/>
		<path d="M341.971,191.887c-1.376,0.688-4.128,1.376-7.654,1.376c-8.17,0-14.319-5.16-14.319-14.663
			c0-9.073,6.149-15.222,15.136-15.222c3.612,0,5.892,0.773,6.881,1.29l-0.903,3.053c-1.419-0.688-3.44-1.204-5.848-1.204
			c-6.793,0-11.31,4.343-11.31,11.954c0,7.095,4.085,11.653,11.137,11.653c2.279,0,4.602-0.474,6.106-1.204L341.971,191.887z"/>
		<path d="M361.665,179.245h-11.266v10.448h12.556v3.14h-16.296v-28.981h15.652v3.14H350.4v9.158h11.266L361.665,179.245
			L361.665,179.245z"/>
		<path d="M367.297,188.275c1.678,1.032,4.128,1.893,6.708,1.893c3.827,0,6.063-2.021,6.063-4.945c0-2.709-1.548-4.257-5.461-5.762
			c-4.73-1.677-7.654-4.128-7.654-8.213c0-4.516,3.741-7.869,9.374-7.869c2.967,0,5.117,0.688,6.407,1.419l-1.032,3.053
			c-0.946-0.516-2.881-1.376-5.504-1.376c-3.956,0-5.461,2.365-5.461,4.343c0,2.709,1.763,4.042,5.762,5.59
			c4.902,1.893,7.396,4.258,7.396,8.515c0,4.472-3.312,8.342-10.148,8.342c-2.795,0-5.848-0.817-7.396-1.849L367.297,188.275z"/>
		<path d="M388.496,188.275c1.677,1.032,4.128,1.893,6.708,1.893c3.827,0,6.063-2.021,6.063-4.945c0-2.709-1.548-4.257-5.461-5.762
			c-4.73-1.677-7.654-4.128-7.654-8.213c0-4.516,3.741-7.869,9.374-7.869c2.967,0,5.117,0.688,6.407,1.419l-1.032,3.053
			c-0.946-0.516-2.881-1.376-5.504-1.376c-3.956,0-5.461,2.365-5.461,4.343c0,2.709,1.763,4.042,5.762,5.59
			c4.902,1.893,7.396,4.258,7.396,8.515c0,4.472-3.312,8.342-10.148,8.342c-2.795,0-5.848-0.817-7.396-1.849L388.496,188.275z"/>
		<path fill="#FFFFFF" d="M439.579,191.887c-1.376,0.688-4.128,1.376-7.652,1.376c-8.17,0-14.319-5.16-14.319-14.663
			c0-9.073,6.149-15.222,15.136-15.222c3.612,0,5.892,0.773,6.88,1.29l-0.902,3.053c-1.418-0.688-3.439-1.204-5.849-1.204
			c-6.793,0-11.309,4.343-11.309,11.954c0,7.095,4.085,11.653,11.137,11.653c2.279,0,4.603-0.474,6.105-1.204L439.579,191.887z"/>
		<path fill="#FFFFFF" d="M468.132,178.042c0,9.976-6.063,15.265-13.459,15.265c-7.654,0-13.029-5.934-13.029-14.706
			c0-9.202,5.72-15.222,13.459-15.222C463.014,163.378,468.132,169.441,468.132,178.042z M445.643,178.514
			c0,6.192,3.354,11.739,9.244,11.739c5.934,0,9.288-5.461,9.288-12.04c0-5.762-3.011-11.782-9.245-11.782
			C448.738,166.432,445.643,172.15,445.643,178.514z"/>
		<path fill="#FFFFFF" d="M472.99,164.238c2.279-0.344,4.988-0.602,7.955-0.602c5.375,0,9.201,1.247,11.738,3.612
			c2.58,2.364,4.085,5.719,4.085,10.405c0,4.73-1.462,8.601-4.171,11.267c-2.709,2.709-7.182,4.171-12.813,4.171
			c-2.666,0-4.901-0.129-6.794-0.344V164.238z M476.73,189.866c0.947,0.172,2.322,0.215,3.785,0.215
			c7.997,0,12.34-4.473,12.34-12.298c0.043-6.838-3.826-11.181-11.738-11.181c-1.936,0-3.396,0.172-4.387,0.387V189.866z"/>
		<path fill="#FFFFFF" d="M516.635,179.245h-11.267v10.448h12.557v3.14h-16.298v-28.981h15.652v3.14h-11.911v9.158h11.267V179.245
			L516.635,179.245z"/>
		<path fill="#ED1C24" d="M551.765,183.287l-20.641,9.546v-4.257l16.513-7.139v-0.086l-16.513-7.138v-4.257l20.641,9.546V183.287z"
			/>
	</g>
</g>
</svg>
